<?xml version="1.0" encoding="utf-8"?>
<!-- Generator: Adobe Illustrator 24.1.2, SVG Export Plug-In . SVG Version: 6.00 Build 0)  -->
<svg version="1.1" xmlns="http://www.w3.org/2000/svg" xmlns:xlink="http://www.w3.org/1999/xlink" x="0px" y="0px"
	 viewBox="0 0 370.8 73.44" style="enable-background:new 0 0 370.8 73.44;" xml:space="preserve">
<style type="text/css">
	.st0{fill:#FFFFFF;}
	.st1{fill:#FFC20E;}
	.st2{fill:#FDFEFE;}
	.st3{font-family:'Whitney-Medium';}
	.st4{font-size:27px;}
	.st5{fill:none;}
</style>
<g id="art_copy">
	<g>
		<g>
			<rect x="188.43" y="12.91" class="st0" width="0.69" height="48.01"/>
		</g>
		<g>
			<g>
				<g>
					<g>
						<g>
							<g>
								<path class="st1" d="M170.16,27.65c0,0-0.81-0.69-1.7,0.18c-0.87,0.85-0.18,1.7-0.18,1.7l7.2,7.2l-7.2,7.2
									c0,0-0.69,0.81,0.18,1.7c0.85,0.87,1.7,0.18,1.7,0.18l9.09-9.08L170.16,27.65z"/>
								<path class="st1" d="M131.39,36.73l7.2-7.2c0,0,0.69-0.81-0.18-1.7c-0.85-0.87-1.7-0.19-1.7-0.19l-9.09,9.08l0,0l0,0
									l9.09,9.08c0,0,0.81,0.69,1.7-0.19c0.86-0.85,0.18-1.7,0.18-1.7L131.39,36.73z"/>
							</g>
							<g>
								<path class="st1" d="M162.32,51.76c-0.85-0.86-1.7-0.18-1.7-0.18l-7.2,7.2l-7.2-7.2c0,0-0.81-0.69-1.7,0.18
									c-0.86,0.85-0.18,1.7-0.18,1.7l9.08,9.09l0-0.01l0,0l9.08-9.08C162.51,53.46,163.2,52.65,162.32,51.76z"/>
								<path class="st1" d="M162.51,20l-9.08-9.09l0,0l0,0L144.35,20c0,0-0.69,0.81,0.18,1.7c0.85,0.87,1.7,0.18,1.7,0.18l7.2-7.2
									l7.2,7.2c0,0,0.81,0.69,1.7-0.18C163.19,20.86,162.51,20,162.51,20z"/>
							</g>
						</g>
						<g>
							<path class="st1" d="M168.8,39.76c0.82-0.89,0.62-1.81,0.62-1.81h-14.77v14.77c0,0,0.91,0.2,1.8-0.62
								c0.93-0.86,0.86-1.88,0.86-1.88v-7.72l7.59,7.6c0,0,0.81,0.69,1.7-0.19c0.87-0.85,0.18-1.7,0.18-1.7l-7.6-7.6h7.73
								C166.93,40.62,167.95,40.69,168.8,39.76z"/>
							<path class="st1" d="M152.21,37.96h-14.77c0,0-0.2,0.91,0.62,1.81c0.86,0.93,1.87,0.86,1.87,0.86h7.72l-7.59,7.6
								c0,0-0.69,0.81,0.19,1.7c0.84,0.87,1.7,0.19,1.7,0.19l7.6-7.6v7.73c0,0-0.07,1.02,0.86,1.88c0.89,0.82,1.81,0.62,1.81,0.62
								V37.96z"/>
							<path class="st1" d="M150.4,21.36c-0.93,0.86-0.86,1.88-0.86,1.88v7.72l-7.59-7.59c0,0-0.81-0.69-1.7,0.18
								c-0.86,0.85-0.18,1.7-0.18,1.7l7.6,7.6l-7.73,0c0,0-1.02-0.07-1.87,0.86c-0.82,0.89-0.62,1.8-0.62,1.8h14.77V20.74
								C152.21,20.74,151.29,20.54,150.4,21.36z"/>
							<path class="st1" d="M168.8,33.7c-0.86-0.93-1.88-0.86-1.88-0.86h-7.72l7.59-7.6c0,0,0.69-0.81-0.18-1.7
								c-0.85-0.86-1.7-0.18-1.7-0.18l-7.6,7.6l0-7.73c0,0,0.07-1.02-0.86-1.87c-0.89-0.82-1.8-0.62-1.8-0.62v14.77h14.77
								C169.42,35.51,169.62,34.6,168.8,33.7z"/>
						</g>
					</g>
					<g>
						<g>
							<path class="st1" d="M30.72,61.76c-11.53,0-18.7-7.35-18.7-19.19V12.64h6.92v29.09c0,8.81,4.19,13.66,11.79,13.66
								c7.85,0,12-4.65,12-13.45v-29.3h6.92v29.58C49.63,54.27,42.38,61.76,30.72,61.76z"/>
						</g>
						<g>
							<path class="st0" d="M71.39,61.41c-4.86,0-9.64-1.12-13.47-3.14L57.8,58.2l1.04-7.11l0.26,0.18
								c2.29,1.51,6.96,4.05,12.43,4.05c5.13,0,8.32-2.71,8.32-7.07c0-4.2-1.69-5.92-9.03-9.24c-8.66-3.93-12.52-6.9-12.52-14.11
								c0-7.66,5.93-12.81,14.75-12.81c4.19,0,7.79,0.89,10.98,2.73l0.12,0.07l-1.11,6.99l-0.27-0.21
								c-2.91-2.22-6.53-3.49-9.93-3.49c-4.82,0-7.7,2.33-7.7,6.24c0,3.58,1.76,5.25,8.96,8.55c9.77,4.44,12.59,7.77,12.59,14.8
								C86.7,55.93,80.55,61.41,71.39,61.41z"/>
						</g>
						<g>
							<path class="st0" d="M104.02,60.86h-6.91V12.64h25.28V19h-18.36v14.22h14.38l1.03,6.36h-15.42V60.86z"/>
						</g>
					</g>
				</g>
			</g>
		</g>
	</g>
</g>
<g id="Events">
	<text transform="matrix(1 0 0 1 203.667 44)" class="st2 st3 st4">Events Site</text>
</g>
<g id="clear_space">
	<rect x="0" y="0" class="st5" width="370.8" height="73.44"/>
</g>
</svg>
