<svg xmlns="http://www.w3.org/2000/svg" xmlns:xlink="http://www.w3.org/1999/xlink" version="1.1" style="enable-background:new 0 0 602.41 97.78;" xml:space="preserve" width="602.41" height="97.78"><rect id="backgroundrect" width="100%" height="100%" x="0" y="0" fill="none" stroke="none"/>
<style type="text/css">
	.st0{fill:#FFC20E;}
	.st1{fill:#F5F5F5;}
</style>

<g class="currentLayer" style=""><title>Layer 1</title><g id="svg_1">
	<g id="svg_2">
		<g id="svg_3">
			<g id="svg_4">
				<path class="st0" d="M72.1,37.73c0,0-0.98-0.84-2.06,0.22c-1.05,1.03-0.22,2.06-0.22,2.06l8.72,8.72l-8.72,8.72      c0,0-0.84,0.98,0.22,2.06c1.02,1.05,2.06,0.22,2.06,0.22l11-11.01L72.1,37.73z" id="svg_5"/>
				<path class="st0" d="M25.13,48.73l8.72-8.72c0,0,0.84-0.98-0.22-2.06c-1.03-1.05-2.06-0.22-2.06-0.22l-11.01,11l0,0l-0.01,0      l11.01,11c0,0,0.98,0.84,2.06-0.22c1.05-1.03,0.22-2.06,0.22-2.06L25.13,48.73z" id="svg_6"/>
			</g>
			<g id="svg_7">
				<path class="st0" d="M62.6,66.93c-1.03-1.05-2.06-0.22-2.06-0.22l-8.72,8.72l-8.72-8.72c0,0-0.98-0.84-2.06,0.22      C40,67.96,40.82,69,40.82,69l11,11.01l0.01,0l0,0l11-11.01C62.83,69,63.66,68.02,62.6,66.93z" id="svg_8"/>
				<path class="st0" d="M62.83,28.46l-11-11.01l-0.01,0l0,0l-11,11.01c0,0-0.84,0.98,0.22,2.06c1.03,1.05,2.06,0.22,2.06,0.22      l8.72-8.72l8.72,8.72c0,0,0.98,0.84,2.06-0.22C63.66,29.5,62.83,28.46,62.83,28.46z" id="svg_9"/>
			</g>
		</g>
		<g id="svg_10">
			<path class="st0" d="M70.45,52.4c0.99-1.08,0.75-2.19,0.75-2.19H53.31V68.1c0,0,1.1,0.24,2.18-0.75     c1.13-1.04,1.04-2.27,1.04-2.27v-9.35l9.2,9.2c0,0,0.98,0.84,2.06-0.22c1.05-1.03,0.22-2.06,0.22-2.06l-9.2-9.21h9.36     C68.18,53.44,69.41,53.53,70.45,52.4z" id="svg_11"/>
			<path class="st0" d="M50.35,50.21H32.46c0,0-0.24,1.11,0.75,2.19c1.04,1.13,2.27,1.04,2.27,1.04h9.36l-9.2,9.2     c0,0-0.84,0.98,0.22,2.06c1.02,1.05,2.06,0.22,2.06,0.22l9.21-9.2v9.37c0,0-0.09,1.23,1.04,2.27c1.08,0.99,2.19,0.75,2.19,0.75     V50.21z" id="svg_12"/>
			<path class="st0" d="M48.16,30.11c-1.13,1.04-1.04,2.27-1.04,2.27v9.35l-9.2-9.2c0,0-0.98-0.84-2.06,0.22     c-1.05,1.03-0.22,2.06-0.22,2.06l9.2,9.21l-9.36,0c0,0-1.23-0.09-2.27,1.04c-0.99,1.08-0.75,2.19-0.75,2.19h17.89V29.36     C50.35,29.36,49.24,29.11,48.16,30.11z" id="svg_13"/>
			<path class="st0" d="M70.45,45.06c-1.04-1.13-2.27-1.04-2.27-1.04h-9.35l9.2-9.2c0,0,0.84-0.98-0.22-2.06     c-1.03-1.05-2.06-0.22-2.06-0.22l-9.21,9.21v-9.37c0,0,0.09-1.23-1.04-2.27c-1.08-0.99-2.18-0.75-2.18-0.75v17.89l17.89,0     C71.2,47.25,71.44,46.14,70.45,45.06z" id="svg_14"/>
		</g>
	</g>
	<g id="svg_15">
		<g id="svg_16">
			<path class="st1" d="M99.56,41.38c-4.96,0-7.93-3.15-7.93-8.14V20.5h2.79v12.39c0,3.56,1.6,5.94,5.14,5.94     c3.47,0,5.23-2.14,5.23-5.85V20.5h2.79V33.1C107.58,38.26,104.52,41.38,99.56,41.38z" id="svg_17"/>
			<path class="st1" d="M129.41,41l-11.26-15.95V41h-2.58V20.5h2.5l10.87,15.36V20.5h2.58V41H129.41z" id="svg_18"/>
			<path class="st1" d="M140.05,41V20.5h2.79V41H140.05z" id="svg_19"/>
			<path class="st1" d="M159.42,41.09h-2.5l-7.9-20.2l2.79-0.59l6.39,17.05l6.27-16.84h2.94L159.42,41.09z" id="svg_20"/>
			<path class="st1" d="M173.56,41V20.5h11.05v2.56h-8.26V29h6.42l0.42,2.55h-6.83v6.89h8.55V41H173.56z" id="svg_21"/>
			<path class="st1" d="M206.04,40.58l-2.82,0.62l-6.27-8.85h-2.11V41h-2.79V20.5h5.58c4.19,0,6.8,2.08,6.8,5.82     c0,3.09-1.81,4.93-4.49,5.67L206.04,40.58z M197.51,22.97h-2.67v7.04h2.38c2.7,0,4.43-1.22,4.43-3.53     C201.64,24.24,200.24,22.97,197.51,22.97z" id="svg_22"/>
			<path class="st1" d="M217.09,41.24c-2.23,0-4.22-0.54-5.73-1.34l0.42-2.85c1.4,0.92,3.33,1.75,5.38,1.75     c2.14,0,3.65-1.13,3.65-3.12c0-1.87-0.83-2.64-3.92-4.04c-3.86-1.75-5.32-3.03-5.32-5.97c0-3.3,2.53-5.41,6.24-5.41     c1.99,0,3.48,0.48,4.66,1.16l-0.45,2.79c-1.13-0.86-2.67-1.51-4.31-1.51c-2.34,0-3.38,1.25-3.38,2.76c0,1.57,0.77,2.32,3.89,3.74     c3.98,1.81,5.35,3.18,5.35,6.27C223.56,39.01,220.92,41.24,217.09,41.24z" id="svg_23"/>
			<path class="st1" d="M230.9,41V20.5h2.79V41H230.9z" id="svg_24"/>
			<path class="st1" d="M249.17,23.06V41h-2.79V23.06h-6.53V20.5h15.62l0.42,2.56H249.17z" id="svg_25"/>
			<path class="st1" d="M268.96,32.86V41h-2.79v-8.14l-7.25-11.97l2.79-0.59l5.88,10.01l5.73-9.8h3.09L268.96,32.86z" id="svg_26"/>
			<path class="st1" d="M297.33,41.38c-5.76,0-9.42-4.28-9.42-10.6c0-6.36,3.71-10.67,9.48-10.67c5.79,0,9.42,4.28,9.42,10.61     C306.81,37.05,303.13,41.38,297.33,41.38z M297.36,22.67c-4.07,0-6.56,3.15-6.56,8.08c0,4.93,2.52,8.08,6.56,8.08     c4.07,0,6.57-3.15,6.57-8.08C303.93,25.82,301.4,22.67,297.36,22.67z" id="svg_27"/>
			<path class="st1" d="M316.53,23.06v6.27h6.18l0.42,2.55h-6.6V41h-2.79V20.5h10.67v2.56H316.53z" id="svg_28"/>
			<path class="st1" d="M342.88,41.24c-2.23,0-4.22-0.54-5.73-1.34l0.42-2.85c1.4,0.92,3.33,1.75,5.38,1.75     c2.14,0,3.65-1.13,3.65-3.12c0-1.87-0.83-2.64-3.92-4.04c-3.86-1.75-5.32-3.03-5.32-5.97c0-3.3,2.53-5.41,6.24-5.41     c1.99,0,3.47,0.48,4.66,1.16l-0.45,2.79c-1.13-0.86-2.68-1.51-4.31-1.51c-2.35,0-3.39,1.25-3.39,2.76c0,1.57,0.77,2.32,3.89,3.74     c3.98,1.81,5.35,3.18,5.35,6.27C349.36,39.01,346.71,41.24,342.88,41.24z" id="svg_29"/>
			<path class="st1" d="M369.76,41.21l-2.4-6.36h-8.47L356.58,41h-2.82l8.02-20.59h2.8l7.9,20.2L369.76,41.21z M363.11,23.74     l-3.27,8.65h6.56L363.11,23.74z" id="svg_30"/>
			<path class="st1" d="M391.87,41l-11.26-15.95V41h-2.59V20.5h2.5l10.87,15.36V20.5h2.58V41H391.87z" id="svg_31"/>
			<path class="st1" d="M413.73,23.06v6.27h6.18l0.41,2.55h-6.6V41h-2.79V20.5h10.67v2.56H413.73z" id="svg_32"/>
			<path class="st1" d="M442.55,40.58l-2.82,0.62l-6.27-8.85h-2.11V41h-2.79V20.5h5.58c4.19,0,6.8,2.08,6.8,5.82     c0,3.09-1.81,4.93-4.49,5.67L442.55,40.58z M434.03,22.97h-2.67v7.04h2.38c2.7,0,4.42-1.22,4.42-3.53     C438.16,24.24,436.76,22.97,434.03,22.97z" id="svg_33"/>
			<path class="st1" d="M462.73,41.21l-2.41-6.36h-8.47L449.54,41h-2.82l8.02-20.59h2.79l7.9,20.2L462.73,41.21z M456.07,23.74     l-3.27,8.65h6.56L456.07,23.74z" id="svg_34"/>
			<path class="st1" d="M485.42,41l-11.26-15.95V41h-2.58V20.5h2.5l10.87,15.36V20.5h2.59V41H485.42z" id="svg_35"/>
			<path class="st1" d="M503.94,41.38c-5.76,0-9.48-4.28-9.48-10.6c0-6.36,3.77-10.67,9.53-10.67c2.44,0,4.25,0.62,5.82,1.69     l-0.42,2.85c-1.48-1.13-3.24-1.99-5.44-1.99c-4.16,0-6.62,3.15-6.62,8.08c0,4.93,2.5,8.05,6.62,8.05c2.2,0,4.13-0.86,5.76-2.05     l0.42,2.64C508.57,40.55,506.28,41.38,503.94,41.38z" id="svg_36"/>
			<path class="st1" d="M516.74,41V20.5h2.79V41H516.74z" id="svg_37"/>
			<path class="st1" d="M531.86,41.24c-2.23,0-4.22-0.54-5.73-1.34l0.42-2.85c1.39,0.92,3.32,1.75,5.37,1.75     c2.14,0,3.65-1.13,3.65-3.12c0-1.87-0.83-2.64-3.92-4.04c-3.86-1.75-5.32-3.03-5.32-5.97c0-3.3,2.52-5.41,6.24-5.41     c1.99,0,3.48,0.48,4.67,1.16l-0.45,2.79c-1.13-0.86-2.67-1.51-4.31-1.51c-2.35,0-3.39,1.25-3.39,2.76c0,1.57,0.77,2.32,3.89,3.74     c3.98,1.81,5.35,3.18,5.35,6.27C538.34,39.01,535.69,41.24,531.86,41.24z" id="svg_38"/>
			<path class="st1" d="M552.84,41.38c-5.76,0-9.47-4.28-9.47-10.6c0-6.36,3.77-10.67,9.53-10.67c2.44,0,4.25,0.62,5.82,1.69     l-0.42,2.85c-1.49-1.13-3.24-1.99-5.44-1.99c-4.16,0-6.62,3.15-6.62,8.08c0,4.93,2.49,8.05,6.62,8.05c2.2,0,4.13-0.86,5.76-2.05     l0.42,2.64C557.47,40.55,555.18,41.38,552.84,41.38z" id="svg_39"/>
			<path class="st1" d="M572.53,41.38c-5.76,0-9.41-4.28-9.41-10.6c0-6.36,3.71-10.67,9.47-10.67c5.79,0,9.42,4.28,9.42,10.61     C582.01,37.05,578.33,41.38,572.53,41.38z M572.56,22.67c-4.07,0-6.56,3.15-6.56,8.08c0,4.93,2.52,8.08,6.56,8.08     c4.07,0,6.56-3.15,6.56-8.08C579.13,25.82,576.6,22.67,572.56,22.67z" id="svg_40"/>
		</g>
		<g id="svg_41">
			<path class="st1" d="M98.45,77.62c-4.22,0-6.94-3.13-6.94-7.77c0-4.66,2.76-7.81,6.98-7.81c1.78,0,3.11,0.46,4.27,1.24     l-0.31,2.09c-1.09-0.83-2.37-1.46-3.98-1.46c-3.05,0-4.85,2.31-4.85,5.92c0,3.61,1.83,5.9,4.85,5.9c1.61,0,3.02-0.63,4.22-1.5     l0.3,1.94C101.85,77.01,100.17,77.62,98.45,77.62z" id="svg_42"/>
			<path class="st1" d="M122.47,77.34v-6.92h-7.59v6.92h-2.04V62.33h2.04v6.22h7.59v-6.22h2.05v15.02H122.47z" id="svg_43"/>
			<path class="st1" d="M144.79,77.49l-1.76-4.66h-6.2l-1.7,4.5h-2.07l5.87-15.08h2.05l5.79,14.8L144.79,77.49z M139.92,64.7     l-2.39,6.33h4.81L139.92,64.7z" id="svg_44"/>
			<path class="st1" d="M165.57,77.34l-8.25-11.68v11.68h-1.89V62.33h1.83l7.96,11.25V62.33h1.89v15.02H165.57z" id="svg_45"/>
			<path class="st1" d="M184.08,77.62c-4.77,0-7.31-3.13-7.31-7.77c0-4.66,2.65-7.81,7.14-7.81c2,0,3.4,0.5,4.57,1.29l-0.33,2.09     c-1.11-0.87-2.5-1.5-4.26-1.5c-3.29,0-5.01,2.31-5.01,5.92c0,3.61,1.76,5.9,5.2,5.9c1.31,0,2.18-0.26,3.05-0.74v-3.98h-3.46     l-0.28-1.87h5.77v7.03C187.87,76.99,186.06,77.62,184.08,77.62z" id="svg_46"/>
			<path class="st1" d="M199.31,77.34V62.33h8.1v1.87h-6.05v4.35h4.7l0.3,1.87h-5.01v5.05h6.27v1.87H199.31z" id="svg_47"/>
			<path class="st1" d="M233.75,64.2v13.14h-2.05V64.2h-4.79v-1.87h11.44l0.31,1.87H233.75z" id="svg_48"/>
			<path class="st1" d="M256.7,77.34v-6.92h-7.59v6.92h-2.04V62.33h2.04v6.22h7.59v-6.22h2.05v15.02H256.7z" id="svg_49"/>
			<path class="st1" d="M269.45,77.34V62.33h8.1v1.87h-6.05v4.35h4.7l0.3,1.87h-5v5.05h6.27v1.87H269.45z" id="svg_50"/>
			<path class="st1" d="M312.42,77.34h-1.72l-4.07-12.16l-4.07,12.16h-1.7l-4.44-14.73l2-0.44l3.39,11.95l3.83-11.79h2.04     l3.83,11.79l3.33-11.79h2.09L312.42,77.34z" id="svg_51"/>
			<path class="st1" d="M331.54,77.62c-4.22,0-6.9-3.13-6.9-7.77c0-4.66,2.72-7.81,6.94-7.81c4.24,0,6.9,3.13,6.9,7.77     C338.48,74.45,335.79,77.62,331.54,77.62z M331.57,63.92c-2.98,0-4.81,2.31-4.81,5.92c0,3.61,1.85,5.92,4.81,5.92     c2.98,0,4.81-2.31,4.81-5.92C336.38,66.22,334.53,63.92,331.57,63.92z" id="svg_52"/>
			<path class="st1" d="M358.5,77.04l-2.07,0.46l-4.59-6.48h-1.54v6.33h-2.04V62.33h4.09c3.07,0,4.98,1.52,4.98,4.27     c0,2.26-1.33,3.61-3.29,4.16L358.5,77.04z M352.26,64.13h-1.96v5.16h1.74c1.98,0,3.24-0.89,3.24-2.59     C355.28,65.07,354.26,64.13,352.26,64.13z" id="svg_53"/>
			<path class="st1" d="M367.53,77.34V62.33h2.04v13.14h5.42l0.29,1.87H367.53z" id="svg_54"/>
			<path class="st1" d="M388.74,77.34h-4.27V62.33h4.35c5.22,0,7.9,3.09,7.9,7.49C396.73,74.27,393.89,77.34,388.74,77.34z      M388.89,64.18h-2.37v11.32h2.31c3.61,0,5.79-1.83,5.79-5.66C394.61,66.07,392.33,64.18,388.89,64.18z" id="svg_55"/>
			<path class="st1" d="M419.59,64.2v4.59h4.53l0.3,1.87h-4.83v6.68h-2.04V62.33h7.81v1.87H419.59z" id="svg_56"/>
			<path class="st1" d="M444.96,77.04l-2.07,0.46l-4.59-6.48h-1.54v6.33h-2.05V62.33h4.09c3.07,0,4.98,1.52,4.98,4.27     c0,2.26-1.33,3.61-3.29,4.16L444.96,77.04z M438.71,64.13h-1.96v5.16h1.74c1.98,0,3.24-0.89,3.24-2.59     C441.74,65.07,440.71,64.13,438.71,64.13z" id="svg_57"/>
			<path class="st1" d="M459.97,77.62c-4.22,0-6.9-3.13-6.9-7.77c0-4.66,2.72-7.81,6.94-7.81c4.24,0,6.9,3.13,6.9,7.77     C466.91,74.45,464.21,77.62,459.97,77.62z M459.99,63.92c-2.98,0-4.81,2.31-4.81,5.92c0,3.61,1.85,5.92,4.81,5.92     c2.98,0,4.81-2.31,4.81-5.92C464.8,66.22,462.95,63.92,459.99,63.92z" id="svg_58"/>
			<path class="st1" d="M491.08,77.34l-0.94-11.95l-4.74,12.01h-1.55l-4.74-12.01l-0.91,11.95h-1.92l1.2-15.02H480l4.68,12.32     l4.68-12.32h2.5l1.18,15.02H491.08z" id="svg_59"/>
			<path class="st1" d="M523.67,77.34v-6.92h-7.59v6.92h-2.04V62.33h2.04v6.22h7.59v-6.22h2.05v15.02H523.67z" id="svg_60"/>
			<path class="st1" d="M536.31,77.34V62.33h8.1v1.87h-6.05v4.35h4.7l0.3,1.87h-5v5.05h6.27v1.87H536.31z" id="svg_61"/>
			<path class="st1" d="M564.46,77.04l-2.07,0.46l-4.59-6.48h-1.54v6.33h-2.04V62.33h4.09c3.07,0,4.98,1.52,4.98,4.27     c0,2.26-1.33,3.61-3.29,4.16L564.46,77.04z M558.22,64.13h-1.96v5.16H558c1.98,0,3.24-0.89,3.24-2.59     C561.24,65.07,560.22,64.13,558.22,64.13z" id="svg_62"/>
			<path class="st1" d="M573.49,77.34V62.33h8.1v1.87h-6.05v4.35h4.7l0.3,1.87h-5v5.05h6.27v1.87H573.49z" id="svg_63"/>
		</g>
		<rect x="91.61000061035156" y="51.18000030517578" class="st1" width="490.2300109863281" height="0.8899999856948853" id="svg_64"/>
	</g>
</g></g></svg>